<svg width="20" height="20" viewBox="0 0 20 20" fill="none" xmlns="http://www.w3.org/2000/svg">
<path fill-rule="evenodd" clip-rule="evenodd" d="M10 20C15.5228 20 20 15.5228 20 10C20 4.47715 15.5228 0 10 0C4.47715 0 0 4.47715 0 10C0 15.5228 4.47715 20 10 20ZM13.1655 7.37377C13.556 6.98325 14.1892 6.98325 14.5797 7.37377L14.7369 7.53091C15.1274 7.92143 15.1274 8.5546 14.7369 8.94512L10.7299 12.9521L9.15857 11.3807L13.1655 7.37377ZM10.7299 12.9521L9.15849 14.5234L5.15155 10.5165C4.76103 10.1259 4.76103 9.49278 5.15155 9.10226L5.30869 8.94512C5.69921 8.5546 6.33237 8.55459 6.7229 8.94511L10.7299 12.9521Z" fill="#82BF00"/>
</svg>
