<svg width="77" height="36" viewBox="0 0 77 36" fill="none" xmlns="http://www.w3.org/2000/svg">
<path d="M35.8868 21.195H0.0620058V23.2829H35.8868V21.195Z" fill="#0D0D0D"/>
<path d="M0.0620058 35.9999H2.26952V33.5957H14.8208V25.3708H0.0620058V35.9999ZM2.26952 27.4586H12.6133V31.5078H2.26952V27.4586Z" fill="#0D0D0D"/>
<path d="M16.9042 33.5958H25.2297V36H27.5003V33.5958H35.8258V25.3709H16.9042V33.5958ZM27.5003 27.4588H33.6813V31.5079H27.5003V27.4588ZM19.1117 27.4588H25.2297V31.5079H19.1117V27.4588Z" fill="#0D0D0D"/>
<path d="M19.0474 0H10.5958V19.0438H19.0474V0ZM16.8399 16.9559H12.8033V2.15113H16.8399V16.9559Z" fill="#0D0D0D"/>
<path d="M23.3991 6.39011L27.4357 2.15113V19.1071H29.6432V6.39011L33.6168 2.15113V19.1071H35.8243V0H32.7338L29.6432 3.28996V0H26.5527L21.1916 5.56762V19.1071H23.3991V6.39011Z" fill="#0D0D0D"/>
<path d="M6.24411 19.1071H8.45163V0H5.36111L0 5.56762V19.0438H6.24411V19.1071ZM2.27059 6.39011L6.30719 2.15113V16.9559H2.27059V6.39011Z" fill="#0D0D0D"/>
<rect x="42.8215" width="1" height="36" fill="#A3D562"/>
<path d="M55.6364 0.221502C51.4057 0.221502 49.7213 3.33457 49.7213 7.31456V9.08783H51.4449V7.19634C51.4449 4.2409 52.5418 1.87655 55.5581 1.87655C58.6919 1.87655 59.7496 4.12268 59.7496 7.31456C59.7496 14.8805 49.7213 16.969 49.7213 26.7023V28.0421H61.3165V26.387H51.5233V26.0718C51.6408 17.9542 61.5515 15.1957 61.5515 7.23575C61.5515 3.21635 59.9063 0.221502 55.6364 0.221502Z" fill="#0D0D0D"/>
<path d="M67.0339 2.11298H75.6911V0.418531H65.3886L64.6835 15.1563H66.368V14.6835C66.9164 12.6344 68.2874 11.531 70.2852 11.531C73.3015 11.531 74.4767 13.7771 74.4767 16.7326V21.3825C74.4767 24.3379 73.3015 26.584 70.2852 26.584C67.3081 26.584 66.1329 24.3379 66.1329 21.3825V19.8062H64.4093V21.3037C64.4093 25.2836 66.1721 28.2785 70.3244 28.2785C74.5159 28.2785 76.2787 25.2836 76.2787 21.3037V16.5749C76.2787 12.7526 74.7509 9.83654 70.9512 9.83654C68.9142 9.83654 67.4648 10.467 66.5246 11.9645L67.0339 2.11298Z" fill="#0D0D0D"/>
<path fill-rule="evenodd" clip-rule="evenodd" d="M49.5 9.30933V7.31456C49.5 5.29823 49.9259 3.47135 50.9149 2.14317C51.9116 0.804622 53.46 0 55.6364 0C57.8288 0 59.3781 0.772411 60.3717 2.08777C61.3573 3.39254 61.7728 5.20114 61.7728 7.23575C61.7728 11.2988 59.2471 14.0342 56.7743 16.7121L56.744 16.745C54.243 19.4536 51.8026 22.1126 51.7446 26.0734V26.1655H61.5378V28.2636H49.5V26.7023C49.5 21.7443 52.0622 18.7337 54.5738 16.0444C54.7276 15.8797 54.8811 15.7162 55.0337 15.5538C57.3871 13.0482 59.5283 10.7686 59.5283 7.31456C59.5283 5.73583 59.2653 4.4298 58.6463 3.52362C58.038 2.63316 57.0645 2.09805 55.5581 2.09805C54.1174 2.09805 53.1604 2.6575 52.5535 3.55254C51.9375 4.46114 51.6662 5.74011 51.6662 7.19634V9.30933H49.5ZM51.5233 26.0718C51.5821 22.0091 54.0939 19.2888 56.5886 16.5869C59.0785 13.8902 61.5515 11.212 61.5515 7.23575C61.5515 3.21635 59.9063 0.221502 55.6364 0.221502C51.4057 0.221502 49.7213 3.33457 49.7213 7.31456V9.08783H51.4449V7.19634C51.4449 4.2409 52.5418 1.87655 55.5581 1.87655C58.6919 1.87655 59.7496 4.12268 59.7496 7.31456C59.7496 10.8596 57.5479 13.2021 55.2078 15.692C52.5536 18.516 49.7213 21.5296 49.7213 26.7023V28.0421H61.3165V26.387H51.5233V26.0718ZM65.3886 0.418531H75.6911V2.11298H67.0339L66.5246 11.9645C66.6011 11.8426 66.681 11.7265 66.7643 11.6161C67.7045 10.3686 69.0799 9.83654 70.9512 9.83654C74.7509 9.83654 76.2787 12.7526 76.2787 16.5749V21.3037C76.2787 25.2836 74.5159 28.2785 70.3244 28.2785C66.1721 28.2785 64.4093 25.2836 64.4093 21.3037V19.8062H66.1329V21.3825C66.1329 24.3379 67.3081 26.584 70.2852 26.584C73.3015 26.584 74.4767 24.3379 74.4767 21.3825V16.7326C74.4767 13.7771 73.3015 11.531 70.2852 11.531C68.2874 11.531 66.9164 12.6344 66.368 14.6835V15.1563H64.6835L65.3886 0.418531ZM66.5893 14.7129V15.3778H64.4514L65.1777 0.197029H75.9124V2.33449H67.244L66.7837 11.2392C67.7673 10.0978 69.1531 9.61504 70.9512 9.61504C72.916 9.61504 74.3181 10.3735 75.2202 11.644C76.1141 12.9029 76.5 14.6396 76.5 16.5749V21.3037C76.5 23.3219 76.0537 25.1204 75.0483 26.4192C74.036 27.7271 72.4786 28.5 70.3244 28.5C68.1891 28.5 66.6416 27.7265 65.6344 26.4188C64.6343 25.1202 64.188 23.3219 64.188 21.3037V19.5847H66.3542V21.3825C66.3542 22.8362 66.6441 24.084 67.2726 24.9626C67.8926 25.8294 68.8602 26.3625 70.2852 26.3625C71.7309 26.3625 72.7082 25.8285 73.3326 24.962C73.9655 24.0837 74.2554 22.8363 74.2554 21.3825V16.7326C74.2554 15.2788 73.9655 14.0314 73.3326 13.1531C72.7082 12.2865 71.7309 11.7525 70.2852 11.7525C69.3285 11.7525 68.5375 12.0159 67.9217 12.5114C67.3108 13.0031 66.8552 13.7372 66.5893 14.7129Z" fill="#0D0D0D"/>
<path fill-rule="evenodd" clip-rule="evenodd" d="M58.4906 24.8208C58.1611 24.9297 58.0067 25.0338 57.4658 25.5123C56.6406 26.2421 55.5355 27.4064 55.0909 28.0144C54.2093 29.2199 53.0624 31.3207 52.6698 32.4493C52.5305 32.8496 52.5023 33.0298 52.5003 33.5328C52.4979 34.1039 52.5087 34.1579 52.7024 34.5428C53.0448 35.2234 53.6982 35.6996 54.6147 35.9365C55.3006 36.1137 55.9691 35.9164 56.4702 35.3888L56.7428 35.1019L56.9343 35.2644C57.5534 35.79 58.8294 36.1128 59.6188 35.9436C59.7394 35.9177 60.0032 35.7854 60.205 35.6494L60.5718 35.4023L60.9079 35.5099C61.6552 35.749 62.296 35.6863 63.0722 35.2981L63.413 35.1276L63.7809 35.319C64.1063 35.4883 64.2043 35.5103 64.63 35.5093C65.0402 35.5082 65.1583 35.4833 65.4298 35.3401L65.7482 35.172L66.143 35.3412C66.7058 35.5824 67.2542 35.577 67.7391 35.3257L68.0862 35.1457L68.4185 35.3123C69.3715 35.79 70.5583 35.6123 71.5245 34.8473C72.0059 34.4662 72.2441 33.9583 72.2401 33.3218C72.2377 32.9512 72.2053 32.785 72.0828 32.5151L71.9285 32.1752L72.2455 31.472C72.7056 30.4513 72.777 30.1984 72.7425 29.7126C72.6868 28.9265 72.1897 28.2305 71.4159 27.8552C71.0634 27.6842 70.9217 27.6505 70.4661 27.6294C70.0157 27.6085 69.8629 27.6275 69.5044 27.7488C69.1221 27.8782 69.0553 27.885 68.8543 27.8147C68.4426 27.6709 67.9131 27.614 67.5804 27.6776C67.2888 27.7334 67.2467 27.7256 66.9629 27.5628C66.0642 27.0476 65.243 27.0246 64.5114 27.4943C64.404 27.5633 64.333 27.5517 63.9759 27.4067C63.5157 27.2196 62.8842 27.1511 62.4836 27.2446L62.2358 27.3024L62.1728 26.9422C62.0439 26.2038 61.6609 25.7054 60.9207 25.3131C59.9988 24.8243 59.0573 24.6336 58.4906 24.8208Z" fill="#A3D562"/>
<path d="M58.0596 30.629C58.1615 29.9923 58.2411 29.5351 58.2984 29.2574C58.3621 28.9729 58.429 28.685 58.499 28.3938C58.5245 28.299 58.5531 28.1703 58.585 28.0077C58.6232 27.8384 58.6582 27.6623 58.69 27.4794C58.5308 27.5403 58.3525 27.6521 58.1551 27.8147C57.9641 27.9772 57.7635 28.1804 57.5534 28.4243C57.3496 28.6613 57.1394 28.9323 56.9229 29.2371C56.7128 29.5351 56.509 29.8534 56.3116 30.1921L55.9773 30.7916C55.8244 31.0964 55.6812 31.4012 55.5474 31.706C55.4137 32.004 55.2991 32.3054 55.2036 32.6102C55.0953 32.9353 55.0061 33.2605 54.9361 33.5856C54.8724 33.9107 54.831 34.2155 54.8119 34.5C54.5063 34.4052 54.2929 34.3103 54.1719 34.2155C54.0573 34.1207 54 34.0022 54 33.8599C54 33.7515 54.0287 33.5991 54.086 33.4027C54.1433 33.2063 54.2261 32.976 54.3343 32.7118C54.4489 32.4409 54.5827 32.1429 54.7355 31.8177C54.8947 31.4926 55.1303 31.049 55.4424 30.4868C55.7544 29.9178 56.0505 29.4335 56.3307 29.0339C56.6173 28.6342 56.9038 28.2685 57.1904 27.9366C57.4769 27.5979 57.7635 27.3033 58.0501 27.0526C58.3366 26.7953 58.6104 26.5921 58.8715 26.443C58.8779 26.3956 58.8811 26.355 58.8811 26.3211C58.8875 26.2873 58.8906 26.2635 58.8906 26.25C58.9798 26.25 59.0976 26.2737 59.2441 26.3211C59.3969 26.3685 59.5434 26.4261 59.6835 26.4938C59.8299 26.5616 59.9573 26.6327 60.0655 26.7072C60.1802 26.7749 60.2438 26.8325 60.2566 26.8799C60.0464 27.2728 59.8395 27.8621 59.6357 28.6478C59.4319 29.4267 59.2632 30.3615 59.1294 31.452C59.0976 31.7229 59.0689 32.0311 59.0435 32.3765C59.0244 32.722 59.0148 33.1081 59.0148 33.5348C59.0148 33.6838 59.0148 33.8362 59.0148 33.992C59.0148 34.1478 59.0212 34.3103 59.0339 34.4797C59.0212 34.4865 59.0084 34.4898 58.9957 34.4898C58.983 34.4898 58.9575 34.4898 58.9193 34.4898C58.8301 34.4898 58.7251 34.4729 58.6041 34.439C58.4895 34.4119 58.3748 34.3747 58.2602 34.3273C58.152 34.2866 58.0564 34.2392 57.9736 34.185C57.8972 34.1309 57.8495 34.0834 57.8304 34.0428C57.824 33.9547 57.8208 33.8667 57.8208 33.7786C57.8208 33.6974 57.8208 33.6093 57.8208 33.5145C57.8208 33.0945 57.8335 32.6678 57.859 32.2343C57.8909 31.8008 57.9577 31.2657 58.0596 30.629Z" fill="#252628"/>
<path d="M63.8921 29.5216C63.8666 29.9415 63.7966 30.3039 63.682 30.6087C63.5673 30.9067 63.4018 31.1709 63.1852 31.4012C62.9751 31.6247 62.7172 31.8279 62.4115 32.0108C62.1059 32.1937 61.7493 32.3698 61.3417 32.5391C61.3417 32.5797 61.3385 32.6238 61.3322 32.6712C61.3322 32.7118 61.3322 32.7558 61.3322 32.8033C61.3322 32.8913 61.3385 32.9828 61.3513 33.0776C61.364 33.1724 61.3863 33.2605 61.4181 33.3417C61.45 33.423 61.4945 33.4908 61.5519 33.545C61.6092 33.5924 61.6824 33.6161 61.7715 33.6161C61.9435 33.6161 62.1122 33.5754 62.2778 33.4942C62.4434 33.4129 62.5994 33.3147 62.7459 33.1995C62.8987 33.0776 63.0388 32.9489 63.1661 32.8134C63.2999 32.6712 63.4177 32.5425 63.5196 32.4273C63.5833 32.4883 63.6374 32.5459 63.682 32.6001C63.3954 33.0065 63.0802 33.3451 62.7363 33.6161C62.3988 33.8802 62.0772 34.0496 61.7715 34.1241C61.3322 34.0699 60.9883 33.9006 60.7399 33.6161C60.4979 33.3248 60.377 32.976 60.377 32.5696C60.377 32.2919 60.412 32.0108 60.482 31.7263C60.5584 31.435 60.6603 31.1573 60.7877 30.8932C60.9214 30.6222 61.0743 30.3682 61.2462 30.1312C61.4245 29.8941 61.6123 29.6875 61.8098 29.5114C62.0135 29.3353 62.2205 29.1964 62.4306 29.0948C62.6472 28.9932 62.8605 28.9424 63.0706 28.9424C63.3636 28.9831 63.6374 29.1761 63.8921 29.5216ZM63.233 29.8568C63.0611 29.8839 62.8828 29.9584 62.6981 30.0804C62.5134 30.2023 62.3383 30.3648 62.1727 30.568C62.0135 30.7712 61.8671 31.0083 61.7333 31.2792C61.5996 31.5502 61.4945 31.8414 61.4181 32.153C61.9276 31.8821 62.351 31.5502 62.6885 31.1573C63.026 30.7577 63.2075 30.3242 63.233 29.8568Z" fill="#252628"/>
<path d="M69.8554 30.6087C69.7535 30.6155 69.6293 30.6866 69.4829 30.822C69.3364 30.9507 69.1772 31.1201 69.0053 31.33C68.8397 31.5333 68.6646 31.7602 68.4799 32.0108C68.3016 32.2614 68.1265 32.512 67.9545 32.7626C67.789 33.0065 67.633 33.2368 67.4865 33.4535C67.34 33.6703 67.2159 33.843 67.114 33.9717C66.9739 33.9107 66.8529 33.8227 66.751 33.7075C66.6491 33.5856 66.5759 33.4366 66.5313 33.2605C66.5631 33.0505 66.6077 32.8337 66.665 32.6102C66.7223 32.3799 66.7956 32.1429 66.8847 31.899C66.9802 31.6552 67.0949 31.4012 67.2286 31.137C67.3687 30.8661 67.5374 30.5816 67.7349 30.2836C67.6393 30.2903 67.5088 30.3648 67.3432 30.5071C67.1777 30.6425 66.9993 30.822 66.8083 31.0456C66.6173 31.2623 66.4199 31.5095 66.2161 31.7873C66.0123 32.0582 65.8213 32.3257 65.643 32.5899C65.4073 32.9421 65.2099 33.2503 65.0507 33.5145C64.8979 33.7786 64.7865 33.9344 64.7164 33.9818C64.5508 33.8531 64.4362 33.7143 64.3725 33.5653C64.3089 33.4163 64.2611 33.2503 64.2293 33.0674C64.2356 32.9049 64.2579 32.7017 64.2961 32.4578C64.3407 32.214 64.4012 31.9634 64.4776 31.706C64.6241 31.2115 64.8119 30.7204 65.0412 30.2328C65.2768 29.7451 65.5029 29.298 65.7194 28.8916C65.8977 28.9323 66.0569 28.9966 66.197 29.0847C66.3434 29.1727 66.4963 29.3014 66.6555 29.4708C66.5918 29.6807 66.4931 29.9042 66.3594 30.1413C66.2256 30.3716 66.0855 30.6155 65.9391 30.8728C65.7926 31.1302 65.6589 31.3944 65.5379 31.6653C65.4169 31.9363 65.3373 32.2106 65.2991 32.4883C65.4774 32.2174 65.6875 31.9058 65.9295 31.5536C66.1779 31.2014 66.4294 30.8695 66.6841 30.5579C66.9452 30.2463 67.2031 29.9821 67.4578 29.7654C67.7126 29.5486 67.9418 29.4403 68.1456 29.4403C68.222 29.4403 68.3048 29.4538 68.3939 29.4809C68.4831 29.508 68.5659 29.5419 68.6423 29.5825C68.7187 29.6232 68.7824 29.6638 68.8333 29.7044C68.8843 29.7383 68.9129 29.7654 68.9193 29.7857C68.8875 29.9212 68.811 30.1075 68.6901 30.3445C68.5754 30.5748 68.4513 30.8187 68.3175 31.076C68.1838 31.3334 68.0596 31.5841 67.945 31.8279C67.8304 32.065 67.7635 32.2546 67.7444 32.3969C68.0564 31.943 68.3494 31.5333 68.6232 31.1675C68.897 30.795 69.1549 30.4766 69.3969 30.2124C69.6389 29.9483 69.8618 29.7451 70.0655 29.6028C70.2757 29.4606 70.4731 29.3895 70.6578 29.3895C70.7851 29.3895 70.9029 29.4267 71.0112 29.5012C71.1258 29.569 71.2054 29.6706 71.25 29.806C71.1927 30.0092 71.0972 30.2531 70.9634 30.5376C70.8361 30.822 70.7055 31.1235 70.5718 31.4418C70.4381 31.7534 70.3171 32.0616 70.2088 32.3664C70.1069 32.6712 70.056 32.9455 70.056 33.1893C70.056 33.3316 70.0751 33.4264 70.1133 33.4738C70.1515 33.5145 70.2056 33.5348 70.2757 33.5348C70.3521 33.5348 70.4222 33.5212 70.4858 33.4942C70.5559 33.4603 70.6068 33.4434 70.6387 33.4434C70.6769 33.4704 70.6992 33.5043 70.7055 33.545C70.7119 33.5856 70.7151 33.6228 70.7151 33.6567C70.5877 33.7651 70.4572 33.8531 70.3235 33.9209C70.1897 33.9954 70.0401 34.0326 69.8745 34.0326C69.7217 34.0326 69.5943 34.0055 69.4924 33.9514C69.3969 33.8972 69.3173 33.8227 69.2536 33.7278C69.1899 33.633 69.1454 33.5246 69.1199 33.4027C69.0944 33.2808 69.0817 33.1487 69.0817 33.0065C69.0817 32.7762 69.1103 32.5493 69.1677 32.3257C69.225 32.0954 69.2918 31.8787 69.3682 31.6755C69.451 31.4655 69.537 31.2725 69.6262 31.0964C69.7153 30.9135 69.7917 30.7509 69.8554 30.6087Z" fill="#252628"/>
</svg>
